<svg width="18" height="18" viewBox="0 0 18 18" fill="none" xmlns="http://www.w3.org/2000/svg">
<path d="M17.0667 8.99171C17.0667 4.54294 13.4528 0.933105 8.99999 0.933105C4.54719 0.933105 0.933319 4.54294 0.933319 8.99171C0.933319 11.442 2.04652 13.6502 3.78892 15.1325C3.80505 15.1486 3.82119 15.1486 3.82119 15.1647C3.96639 15.2777 4.11159 15.3906 4.27292 15.5035C4.35359 15.5519 4.41812 15.6154 4.49879 15.68C5.83187 16.5838 7.40552 17.0668 9.01612 17.0664C10.6267 17.0668 12.2004 16.5838 13.5335 15.68C13.6141 15.6316 13.6787 15.5681 13.7593 15.5186C13.9045 15.4067 14.0659 15.2938 14.2111 15.1809C14.2272 15.1647 14.2433 15.1647 14.2433 15.1486C15.9535 13.6492 17.0667 11.442 17.0667 8.99171ZM8.99999 16.051C7.48345 16.051 6.09599 15.567 4.95052 14.7614C4.96665 14.6323 4.99892 14.5043 5.03119 14.3752C5.12732 14.0254 5.26831 13.6895 5.45065 13.3759C5.62812 13.0694 5.83785 12.7951 6.09599 12.5531C6.33799 12.3111 6.62839 12.0863 6.91879 11.9088C7.22532 11.7313 7.54799 11.6023 7.90292 11.5055C8.26061 11.4091 8.62953 11.3606 8.99999 11.3613C10.0997 11.3535 11.1591 11.7754 11.9524 12.537C12.3235 12.9081 12.6139 13.3437 12.8236 13.8428C12.9365 14.1332 13.0172 14.4397 13.0656 14.7614C11.8749 15.5985 10.4554 16.0487 8.99999 16.051ZM6.53159 8.58938C6.38943 8.26391 6.31795 7.91198 6.32185 7.55685C6.32185 7.20292 6.38639 6.84799 6.53159 6.52532C6.67679 6.20266 6.87039 5.91326 7.11239 5.67126C7.35439 5.42926 7.64479 5.23667 7.96745 5.09147C8.29012 4.94627 8.64505 4.88174 8.99999 4.88174C9.37105 4.88174 9.70985 4.94627 10.0325 5.09147C10.3552 5.23667 10.6456 5.43027 10.8876 5.67126C11.1296 5.91326 11.3232 6.20366 11.4684 6.52532C11.6136 6.84799 11.6781 7.20292 11.6781 7.55685C11.6781 7.92791 11.6136 8.26671 11.4684 8.58837C11.3283 8.90626 11.1314 9.19601 10.8876 9.44344C10.6401 9.68694 10.3503 9.8834 10.0325 10.0232C9.36584 10.2972 8.618 10.2972 7.95132 10.0232C7.6335 9.8834 7.34377 9.68694 7.09625 9.44344C6.85205 9.19961 6.65994 8.9087 6.53159 8.58837V8.58938ZM14.0175 13.9396C14.0175 13.9073 14.0013 13.8912 14.0013 13.8589C13.8426 13.3542 13.6088 12.8762 13.3076 12.4412C13.0061 12.003 12.6356 11.6165 12.2105 11.2968C11.8859 11.0525 11.5339 10.8468 11.1619 10.6837C11.3311 10.572 11.488 10.4425 11.6297 10.2975C11.8702 10.06 12.0815 9.79464 12.2589 9.50696C12.6162 8.91992 12.8008 8.24402 12.7913 7.55685C12.7963 7.04816 12.6975 6.5438 12.5009 6.0746C12.3068 5.6225 12.0275 5.21202 11.6781 4.86561C11.3293 4.5228 10.9187 4.2491 10.4681 4.05894C9.99814 3.86271 9.49312 3.76425 8.98385 3.76955C8.47451 3.76457 7.96949 3.86337 7.49959 4.05995C7.04508 4.2497 6.63354 4.52921 6.28959 4.88174C5.94679 5.23021 5.67308 5.64043 5.48292 6.09073C5.28634 6.55993 5.18753 7.06429 5.19252 7.57298C5.19252 7.92791 5.24092 8.26671 5.33772 8.58837C5.43452 8.92717 5.56359 9.23371 5.74105 9.5231C5.90239 9.8135 6.12825 10.0716 6.37025 10.3136C6.51545 10.4588 6.67679 10.5869 6.85425 10.6998C6.481 10.8673 6.12898 11.0785 5.80559 11.329C5.38612 11.6517 5.01505 12.0379 4.70852 12.4573C4.40426 12.8906 4.17015 13.369 4.01479 13.8751C3.99865 13.9073 3.99865 13.9396 3.99865 13.9557C2.72412 12.6661 1.93359 10.9257 1.93359 8.99171C1.93359 5.10761 5.11185 1.93236 8.99999 1.93236C12.8881 1.93236 16.0664 5.10761 16.0664 8.99171C16.0643 10.847 15.3276 12.626 14.0175 13.9396Z" fill="#383838"/>
</svg>
