<svg width="18" height="18" viewBox="0 0 18 18" fill="none" xmlns="http://www.w3.org/2000/svg">
<path d="M0.933319 1.47088C0.933319 1.32826 0.989978 1.19147 1.09083 1.09062C1.19168 0.989764 1.32847 0.933105 1.4711 0.933105H3.08443C3.20439 0.933139 3.32089 0.973278 3.41541 1.04714C3.50993 1.121 3.57704 1.22435 3.60607 1.34074L4.04167 3.08422H16.5289C16.6078 3.08429 16.6858 3.10175 16.7573 3.13536C16.8287 3.16897 16.8919 3.2179 16.9423 3.27868C16.9927 3.33946 17.0291 3.41059 17.0489 3.48703C17.0688 3.56347 17.0715 3.64333 17.057 3.72095L15.4436 12.3254C15.4206 12.4486 15.3552 12.5599 15.2587 12.6401C15.1623 12.7202 15.0409 12.7641 14.9155 12.7642H5.23554C5.11017 12.7641 4.98877 12.7202 4.89234 12.6401C4.79591 12.5599 4.73051 12.4486 4.70744 12.3254L3.09519 3.73708L2.66496 2.00866H1.4711C1.32847 2.00866 1.19168 1.952 1.09083 1.85115C0.989978 1.7503 0.933319 1.61351 0.933319 1.47088ZM4.26969 4.15977L5.6819 11.6887H14.4692L15.8814 4.15977H4.26969ZM6.3111 12.7642C5.74059 12.7642 5.19344 12.9909 4.79003 13.3943C4.38662 13.7977 4.15999 14.3448 4.15999 14.9153C4.15999 15.4858 4.38662 16.033 4.79003 16.4364C5.19344 16.8398 5.74059 17.0664 6.3111 17.0664C6.88161 17.0664 7.42875 16.8398 7.83216 16.4364C8.23557 16.033 8.46221 15.4858 8.46221 14.9153C8.46221 14.3448 8.23557 13.7977 7.83216 13.3943C7.42875 12.9909 6.88161 12.7642 6.3111 12.7642ZM13.84 12.7642C13.2695 12.7642 12.7223 12.9909 12.3189 13.3943C11.9155 13.7977 11.6889 14.3448 11.6889 14.9153C11.6889 15.4858 11.9155 16.033 12.3189 16.4364C12.7223 16.8398 13.2695 17.0664 13.84 17.0664C14.4105 17.0664 14.9576 16.8398 15.361 16.4364C15.7645 16.033 15.9911 15.4858 15.9911 14.9153C15.9911 14.3448 15.7645 13.7977 15.361 13.3943C14.9576 12.9909 14.4105 12.7642 13.84 12.7642ZM6.3111 13.8398C6.59635 13.8398 6.86992 13.9531 7.07163 14.1548C7.27333 14.3565 7.38665 14.6301 7.38665 14.9153C7.38665 15.2006 7.27333 15.4742 7.07163 15.6759C6.86992 15.8776 6.59635 15.9909 6.3111 15.9909C6.02584 15.9909 5.75227 15.8776 5.55056 15.6759C5.34886 15.4742 5.23554 15.2006 5.23554 14.9153C5.23554 14.6301 5.34886 14.3565 5.55056 14.1548C5.75227 13.9531 6.02584 13.8398 6.3111 13.8398ZM13.84 13.8398C14.1252 13.8398 14.3988 13.9531 14.6005 14.1548C14.8022 14.3565 14.9155 14.6301 14.9155 14.9153C14.9155 15.2006 14.8022 15.4742 14.6005 15.6759C14.3988 15.8776 14.1252 15.9909 13.84 15.9909C13.5547 15.9909 13.2812 15.8776 13.0795 15.6759C12.8777 15.4742 12.7644 15.2006 12.7644 14.9153C12.7644 14.6301 12.8777 14.3565 13.0795 14.1548C13.2812 13.9531 13.5547 13.8398 13.84 13.8398Z" fill="#383838"/>
</svg>
